<svg xmlns="http://www.w3.org/2000/svg" version="1.1" xmlns:xlink="http://www.w3.org/1999/xlink" width="512" height="512" x="0" y="0" viewBox="0 0 24 24" style="enable-background:new 0 0 512 512" xml:space="preserve" class=""><g><path d="m20.796 7.767-.868-1.302V4.694c0-.315-.143-.614-.389-.812l-2.907-2.389a1.04 1.04 0 0 0-.965-.184l-2.083.65c-.027-.554-.566-.96-1.128-.96h-.714L10.667.188c-.175-.123-.46-.189-.674-.189-.522 0-.964.385-1.034.902L8.758 2.37l-.802.629h-.288a2.642 2.642 0 0 0-2.599 2.245l-.377 2.972-.675.158a1.044 1.044 0 0 0-.801.912l-.308 3.058c-.021.207.021.416.119.599l.301.558a2.483 2.483 0 0 0-.034 2.467c.214.388.471.85.687 1.227.341.595.92 1.027 1.59 1.186l.449.107-.419 1.206a2.437 2.437 0 0 0-.037 1.494C5.867 22.229 6.837 23 7.923 23h1.331l2.195.913c.19.091.42.091.631.087.273 0 .534-.107.729-.297.087-.085.186-.21.297-.375l.626.1c.143.023.291.016.431-.021l2.014-.406.766-.027c.572 0 1.008-.504 1.014-1.076v-1.397l.327-.412c.885-1.116.926-2.681-.092-3.676l-.775-.758-1.331-1.154c1.049-.139 1.783-.622 2.424-1.477l.376-.501h.802a1.042 1.042 0 0 0 .979-1.407l-.374-1.007.591-1.338a1.044 1.044 0 0 0-.086-1.001zm-1.109 3.753h-.802a1 1 0 0 0-.8.4l-.376.501c-.504.673-1.013.987-1.755 1.086a.998.998 0 0 0-.523 1.747l1.309 1.134.754.737c.689.673.525 1.687.007 2.34l-.327.412c-.14.177-.216.396-.216.621v1.386c0 .052-.036.094-.101.094l-.714.02c-.107-.006-2.118.42-2.252.44-.124-.015-.666-.118-.783-.112a1 1 0 0 0-.829.44c-.151.2-.122.217-.218.232a.683.683 0 0 1-.226-.01l-2.195-.913a.994.994 0 0 0-.384-.077H7.925c-.626 0-1.214-.459-1.399-1.094a1.443 1.443 0 0 1 .022-.884l.419-1.206a1 1 0 0 0-.714-1.301l-.449-.106a1.498 1.498 0 0 1-.953-.71 96.997 96.997 0 0 1-.679-1.212 1.479 1.479 0 0 1 .02-1.477c.177-.301.184-.673.019-.981l-.305-.583.308-3.057a.042.042 0 0 1 .034-.038l.675-.158a.998.998 0 0 0 .764-.848l.375-2.952A1.637 1.637 0 0 1 7.672 4h.288a1 1 0 0 0 .617-.213l.802-.629a.997.997 0 0 0 .374-.652l.201-1.47c.003-.021.047-.11.159-.016l1.03.777a1 1 0 0 0 .602.202l.846.002c.025.295.18.608.423.778a.997.997 0 0 0 .871.135l2.116-.648 2.931 2.428v1.771a1 1 0 0 0 .168.555l.872 1.344-.591 1.338a1.004 1.004 0 0 0-.023.752l.333 1.066z" fill="#d07a7e" opacity="1" data-original="#000000" class=""></path></g></svg>