<svg width="387" height="80" viewBox="0 0 387 80" fill="none" xmlns="http://www.w3.org/2000/svg">
<path d="M122.096 57.864C118.208 57.864 114.584 57.24 111.224 55.992C107.912 54.696 105.032 52.872 102.584 50.52C100.136 48.168 98.216 45.408 96.824 42.24C95.48 39.072 94.808 35.592 94.808 31.8C94.808 28.008 95.48 24.528 96.824 21.36C98.216 18.192 100.136 15.432 102.584 13.08C105.08 10.728 107.984 8.928 111.296 7.68C114.608 6.384 118.232 5.736 122.168 5.736C126.536 5.736 130.472 6.504 133.976 8.04C137.528 9.528 140.504 11.736 142.904 14.664L135.416 21.576C133.688 19.608 131.768 18.144 129.656 17.184C127.544 16.176 125.24 15.672 122.744 15.672C120.392 15.672 118.232 16.056 116.264 16.824C114.296 17.592 112.592 18.696 111.152 20.136C109.712 21.576 108.584 23.28 107.768 25.248C107 27.216 106.616 29.4 106.616 31.8C106.616 34.2 107 36.384 107.768 38.352C108.584 40.32 109.712 42.024 111.152 43.464C112.592 44.904 114.296 46.008 116.264 46.776C118.232 47.544 120.392 47.928 122.744 47.928C125.24 47.928 127.544 47.448 129.656 46.488C131.768 45.48 133.688 43.968 135.416 41.952L142.904 48.864C140.504 51.792 137.528 54.024 133.976 55.56C130.472 57.096 126.512 57.864 122.096 57.864Z" fill="white"/>
<path d="M168.616 57.576C164.488 57.576 160.816 56.712 157.6 54.984C154.432 53.256 151.912 50.904 150.04 47.928C148.216 44.904 147.304 41.472 147.304 37.632C147.304 33.744 148.216 30.312 150.04 27.336C151.912 24.312 154.432 21.96 157.6 20.28C160.816 18.552 164.488 17.688 168.616 17.688C172.696 17.688 176.344 18.552 179.56 20.28C182.776 21.96 185.296 24.288 187.12 27.264C188.944 30.24 189.856 33.696 189.856 37.632C189.856 41.472 188.944 44.904 187.12 47.928C185.296 50.904 182.776 53.256 179.56 54.984C176.344 56.712 172.696 57.576 168.616 57.576ZM168.616 48.36C170.488 48.36 172.168 47.928 173.656 47.064C175.144 46.2 176.32 44.976 177.184 43.392C178.048 41.76 178.48 39.84 178.48 37.632C178.48 35.376 178.048 33.456 177.184 31.872C176.32 30.288 175.144 29.064 173.656 28.2C172.168 27.336 170.488 26.904 168.616 26.904C166.744 26.904 165.064 27.336 163.576 28.2C162.088 29.064 160.888 30.288 159.976 31.872C159.112 33.456 158.68 35.376 158.68 37.632C158.68 39.84 159.112 41.76 159.976 43.392C160.888 44.976 162.088 46.2 163.576 47.064C165.064 47.928 166.744 48.36 168.616 48.36Z" fill="white"/>
<path d="M320.408 57.576C315.992 57.576 312.104 56.712 308.744 54.984C305.432 53.256 302.864 50.904 301.04 47.928C299.216 44.904 298.304 41.472 298.304 37.632C298.304 33.744 299.192 30.312 300.968 27.336C302.792 24.312 305.264 21.96 308.384 20.28C311.504 18.552 315.032 17.688 318.968 17.688C322.76 17.688 326.168 18.504 329.192 20.136C332.264 21.72 334.688 24.024 336.464 27.048C338.24 30.024 339.128 33.6 339.128 37.776C339.128 38.208 339.104 38.712 339.056 39.288C339.008 39.816 338.96 40.32 338.912 40.8H307.448V34.248H333.008L328.688 36.192C328.688 34.176 328.28 32.424 327.464 30.936C326.648 29.448 325.52 28.296 324.08 27.48C322.64 26.616 320.96 26.184 319.04 26.184C317.12 26.184 315.416 26.616 313.928 27.48C312.488 28.296 311.36 29.472 310.544 31.008C309.728 32.496 309.32 34.272 309.32 36.336V38.064C309.32 40.176 309.776 42.048 310.688 43.68C311.648 45.264 312.968 46.488 314.648 47.352C316.376 48.168 318.392 48.576 320.696 48.576C322.76 48.576 324.56 48.264 326.096 47.64C327.68 47.016 329.12 46.08 330.416 44.832L336.392 51.312C334.616 53.328 332.384 54.888 329.696 55.992C327.008 57.048 323.912 57.576 320.408 57.576Z" fill="#A80202"/>
<path d="M363.816 57.576C360.168 57.576 356.88 56.76 353.952 55.128C351.024 53.448 348.696 51.12 346.968 48.144C345.288 45.168 344.448 41.664 344.448 37.632C344.448 33.552 345.288 30.024 346.968 27.048C348.696 24.072 351.024 21.768 353.952 20.136C356.88 18.504 360.168 17.688 363.816 17.688C367.08 17.688 369.936 18.408 372.384 19.848C374.832 21.288 376.728 23.472 378.072 26.4C379.416 29.328 380.088 33.072 380.088 37.632C380.088 42.144 379.44 45.888 378.144 48.864C376.848 51.792 374.976 53.976 372.528 55.416C370.128 56.856 367.224 57.576 363.816 57.576ZM365.76 48.36C367.584 48.36 369.24 47.928 370.728 47.064C372.216 46.2 373.392 44.976 374.256 43.392C375.168 41.76 375.624 39.84 375.624 37.632C375.624 35.376 375.168 33.456 374.256 31.872C373.392 30.288 372.216 29.064 370.728 28.2C369.24 27.336 367.584 26.904 365.76 26.904C363.888 26.904 362.208 27.336 360.72 28.2C359.232 29.064 358.032 30.288 357.12 31.872C356.256 33.456 355.824 35.376 355.824 37.632C355.824 39.84 356.256 41.76 357.12 43.392C358.032 44.976 359.232 46.2 360.72 47.064C362.208 47.928 363.888 48.36 365.76 48.36ZM375.912 57V49.08L376.128 37.56L375.408 26.112V3.576H386.64V57H375.912Z" fill="white"/>
<path d="M104.368 75L100.592 63.8H101.808L105.344 74.344H104.736L108.384 63.8H109.472L113.072 74.344H112.496L116.064 63.8H117.2L113.424 75H112.176L108.736 65H109.056L105.6 75H104.368ZM122.058 75.08C121.184 75.08 120.416 74.8987 119.754 74.536C119.093 74.1627 118.576 73.656 118.202 73.016C117.829 72.3653 117.642 71.624 117.642 70.792C117.642 69.96 117.818 69.224 118.17 68.584C118.533 67.944 119.024 67.4427 119.642 67.08C120.272 66.7067 120.976 66.52 121.754 66.52C122.544 66.52 123.242 66.7013 123.85 67.064C124.469 67.416 124.954 67.9173 125.306 68.568C125.658 69.208 125.834 69.9493 125.834 70.792C125.834 70.8453 125.829 70.904 125.818 70.968C125.818 71.0213 125.818 71.08 125.818 71.144H118.506V70.296H125.21L124.762 70.632C124.762 70.024 124.629 69.4853 124.362 69.016C124.106 68.536 123.754 68.1627 123.306 67.896C122.858 67.6293 122.341 67.496 121.754 67.496C121.178 67.496 120.661 67.6293 120.202 67.896C119.744 68.1627 119.386 68.536 119.13 69.016C118.874 69.496 118.746 70.0453 118.746 70.664V70.84C118.746 71.48 118.885 72.0453 119.162 72.536C119.45 73.016 119.845 73.3947 120.346 73.672C120.858 73.9387 121.44 74.072 122.09 74.072C122.602 74.072 123.077 73.9813 123.514 73.8C123.962 73.6187 124.346 73.3413 124.666 72.968L125.306 73.704C124.933 74.152 124.464 74.4933 123.898 74.728C123.344 74.9627 122.73 75.08 122.058 75.08ZM132.483 75.08C131.747 75.08 131.085 74.9147 130.499 74.584C129.912 74.2427 129.448 73.752 129.107 73.112C128.765 72.472 128.595 71.6987 128.595 70.792C128.595 69.8747 128.765 69.1013 129.107 68.472C129.459 67.832 129.928 67.3467 130.515 67.016C131.101 66.6853 131.757 66.52 132.483 66.52C133.283 66.52 133.997 66.7013 134.627 67.064C135.267 67.416 135.768 67.912 136.131 68.552C136.493 69.192 136.675 69.9387 136.675 70.792C136.675 71.6347 136.493 72.3813 136.131 73.032C135.768 73.672 135.267 74.1733 134.627 74.536C133.997 74.8987 133.283 75.08 132.483 75.08ZM128.147 75V63.128H129.283V69.08L129.123 70.776L129.235 72.472V75H128.147ZM132.403 74.072C133 74.072 133.533 73.9387 134.003 73.672C134.472 73.3947 134.845 73.0107 135.123 72.52C135.4 72.0187 135.539 71.4427 135.539 70.792C135.539 70.1307 135.4 69.5547 135.123 69.064C134.845 68.5733 134.472 68.1947 134.003 67.928C133.533 67.6507 133 67.512 132.403 67.512C131.805 67.512 131.267 67.6507 130.786 67.928C130.317 68.1947 129.944 68.5733 129.667 69.064C129.4 69.5547 129.267 70.1307 129.267 70.792C129.267 71.4427 129.4 72.0187 129.667 72.52C129.944 73.0107 130.317 73.3947 130.786 73.672C131.267 73.9387 131.805 74.072 132.403 74.072ZM142.558 75.08C141.684 75.08 140.916 74.8987 140.254 74.536C139.593 74.1627 139.076 73.656 138.702 73.016C138.329 72.3653 138.142 71.624 138.142 70.792C138.142 69.96 138.318 69.224 138.67 68.584C139.033 67.944 139.524 67.4427 140.142 67.08C140.772 66.7067 141.476 66.52 142.254 66.52C143.044 66.52 143.742 66.7013 144.35 67.064C144.969 67.416 145.454 67.9173 145.806 68.568C146.158 69.208 146.334 69.9493 146.334 70.792C146.334 70.8453 146.329 70.904 146.318 70.968C146.318 71.0213 146.318 71.08 146.318 71.144H139.006V70.296H145.71L145.262 70.632C145.262 70.024 145.129 69.4853 144.862 69.016C144.606 68.536 144.254 68.1627 143.806 67.896C143.358 67.6293 142.841 67.496 142.254 67.496C141.678 67.496 141.161 67.6293 140.702 67.896C140.244 68.1627 139.886 68.536 139.63 69.016C139.374 69.496 139.246 70.0453 139.246 70.664V70.84C139.246 71.48 139.385 72.0453 139.662 72.536C139.95 73.016 140.345 73.3947 140.846 73.672C141.358 73.9387 141.94 74.072 142.59 74.072C143.102 74.072 143.577 73.9813 144.014 73.8C144.462 73.6187 144.846 73.3413 145.166 72.968L145.806 73.704C145.433 74.152 144.964 74.4933 144.398 74.728C143.844 74.9627 143.23 75.08 142.558 75.08ZM152.935 66.52C153.617 66.52 154.215 66.6533 154.727 66.92C155.249 67.176 155.655 67.5707 155.943 68.104C156.241 68.6373 156.391 69.3093 156.391 70.12V75H155.255V70.232C155.255 69.3467 155.031 68.68 154.583 68.232C154.145 67.7733 153.527 67.544 152.727 67.544C152.129 67.544 151.607 67.6667 151.159 67.912C150.721 68.1467 150.38 68.4933 150.135 68.952C149.9 69.4 149.783 69.944 149.783 70.584V75H148.647V66.6H149.735V68.904L149.559 68.472C149.825 67.864 150.252 67.3893 150.839 67.048C151.425 66.696 152.124 66.52 152.935 66.52ZM162.115 75.08C161.326 75.08 160.718 74.8667 160.291 74.44C159.864 74.0133 159.651 73.4107 159.651 72.632V64.744H160.787V72.568C160.787 73.0587 160.91 73.4373 161.155 73.704C161.411 73.9707 161.774 74.104 162.243 74.104C162.744 74.104 163.16 73.96 163.491 73.672L163.891 74.488C163.667 74.6907 163.395 74.84 163.075 74.936C162.766 75.032 162.446 75.08 162.115 75.08ZM158.147 67.544V66.6H163.347V67.544H158.147ZM167.515 75L164.347 66.6H165.435L168.315 74.392H167.819L170.779 66.6H171.755L174.683 74.392H174.187L177.115 66.6H178.155L174.971 75H173.899L171.083 67.672H171.419L168.587 75H167.515ZM179.865 75V66.6H181.001V75H179.865ZM180.441 64.744C180.207 64.744 180.009 64.664 179.849 64.504C179.689 64.344 179.609 64.152 179.609 63.928C179.609 63.704 179.689 63.5173 179.849 63.368C180.009 63.208 180.207 63.128 180.441 63.128C180.676 63.128 180.873 63.2027 181.033 63.352C181.193 63.5013 181.273 63.688 181.273 63.912C181.273 64.1467 181.193 64.344 181.033 64.504C180.884 64.664 180.687 64.744 180.441 64.744ZM187.65 75.08C186.818 75.08 186.071 74.8987 185.41 74.536C184.759 74.1627 184.247 73.656 183.874 73.016C183.501 72.3653 183.314 71.624 183.314 70.792C183.314 69.9493 183.501 69.208 183.874 68.568C184.247 67.928 184.759 67.4267 185.41 67.064C186.071 66.7013 186.818 66.52 187.65 66.52C188.365 66.52 189.01 66.6587 189.586 66.936C190.162 67.2133 190.615 67.6293 190.946 68.184L190.098 68.76C189.81 68.3333 189.453 68.0187 189.026 67.816C188.599 67.6133 188.135 67.512 187.634 67.512C187.037 67.512 186.498 67.6507 186.018 67.928C185.538 68.1947 185.159 68.5733 184.882 69.064C184.605 69.5547 184.466 70.1307 184.466 70.792C184.466 71.4533 184.605 72.0293 184.882 72.52C185.159 73.0107 185.538 73.3947 186.018 73.672C186.498 73.9387 187.037 74.072 187.634 74.072C188.135 74.072 188.599 73.9707 189.026 73.768C189.453 73.5653 189.81 73.256 190.098 72.84L190.946 73.416C190.615 73.96 190.162 74.376 189.586 74.664C189.01 74.9413 188.365 75.08 187.65 75.08ZM193.949 72.824L193.981 71.368L199.213 66.6H200.605L196.909 70.136L196.269 70.68L193.949 72.824ZM193.053 75V63.128H194.189V75H193.053ZM199.565 75L196.061 70.632L196.797 69.752L200.957 75H199.565ZM202.662 75V63.128H203.798V75H202.662ZM210.431 75.08C209.716 75.08 209.092 74.9467 208.559 74.68C208.026 74.4133 207.61 74.0133 207.311 73.48C207.023 72.9467 206.879 72.28 206.879 71.48V66.6H208.015V71.352C208.015 72.248 208.234 72.9253 208.671 73.384C209.119 73.832 209.743 74.056 210.543 74.056C211.13 74.056 211.636 73.9387 212.063 73.704C212.5 73.4587 212.831 73.1067 213.055 72.648C213.29 72.1893 213.407 71.64 213.407 71V66.6H214.543V75H213.455V72.696L213.631 73.112C213.364 73.7307 212.948 74.216 212.383 74.568C211.828 74.9093 211.178 75.08 210.431 75.08ZM221.997 66.52C222.68 66.52 223.277 66.6533 223.789 66.92C224.312 67.176 224.717 67.5707 225.005 68.104C225.304 68.6373 225.453 69.3093 225.453 70.12V75H224.317V70.232C224.317 69.3467 224.093 68.68 223.645 68.232C223.208 67.7733 222.589 67.544 221.789 67.544C221.192 67.544 220.669 67.6667 220.221 67.912C219.784 68.1467 219.442 68.4933 219.197 68.952C218.962 69.4 218.845 69.944 218.845 70.584V75H217.709V66.6H218.797V68.904L218.621 68.472C218.888 67.864 219.314 67.3893 219.901 67.048C220.488 66.696 221.186 66.52 221.997 66.52ZM232.106 78.184C231.338 78.184 230.602 78.072 229.898 77.848C229.194 77.624 228.623 77.304 228.186 76.888L228.762 76.024C229.156 76.376 229.642 76.6533 230.218 76.856C230.804 77.0693 231.423 77.176 232.074 77.176C233.14 77.176 233.924 76.9253 234.426 76.424C234.927 75.9333 235.178 75.1653 235.178 74.12V72.024L235.338 70.584L235.226 69.144V66.6H236.314V73.976C236.314 75.4267 235.956 76.488 235.242 77.16C234.538 77.8427 233.492 78.184 232.106 78.184ZM231.898 74.68C231.098 74.68 230.378 74.5093 229.738 74.168C229.098 73.816 228.591 73.3307 228.218 72.712C227.855 72.0933 227.674 71.384 227.674 70.584C227.674 69.784 227.855 69.08 228.218 68.472C228.591 67.8533 229.098 67.3733 229.738 67.032C230.378 66.6907 231.098 66.52 231.898 66.52C232.644 66.52 233.316 66.6747 233.914 66.984C234.511 67.2933 234.986 67.752 235.338 68.36C235.69 68.968 235.866 69.7093 235.866 70.584C235.866 71.4587 235.69 72.2 235.338 72.808C234.986 73.416 234.511 73.88 233.914 74.2C233.316 74.52 232.644 74.68 231.898 74.68ZM232.01 73.672C232.628 73.672 233.178 73.544 233.658 73.288C234.138 73.0213 234.516 72.6587 234.794 72.2C235.071 71.7307 235.21 71.192 235.21 70.584C235.21 69.976 235.071 69.4427 234.794 68.984C234.516 68.5253 234.138 68.168 233.658 67.912C233.178 67.6453 232.628 67.512 232.01 67.512C231.402 67.512 230.852 67.6453 230.362 67.912C229.882 68.168 229.503 68.5253 229.226 68.984C228.959 69.4427 228.826 69.976 228.826 70.584C228.826 71.192 228.959 71.7307 229.226 72.2C229.503 72.6587 229.882 73.0213 230.362 73.288C230.852 73.544 231.402 73.672 232.01 73.672Z" fill="white"/>
<path d="M0 10C0 4.47715 4.47715 0 10 0H70C75.5229 0 80 4.47715 80 10V70C80 75.5229 75.5229 80 70 80H10C4.47715 80 0 75.5229 0 70V10Z" fill="#A80202"/>
<path d="M15.6654 41.8085L24.7565 51.786C24.9662 52.0242 25.217 52.2143 25.4943 52.345C25.7715 52.4757 26.0698 52.5445 26.3716 52.5474C26.6733 52.5503 26.9726 52.4872 27.2519 52.3618C27.5312 52.2363 27.785 52.0511 27.9984 51.8169C28.2118 51.5827 28.3805 51.3042 28.4948 50.9977C28.6091 50.6911 28.6666 50.3626 28.664 50.0314C28.6614 49.7002 28.5987 49.3729 28.4796 49.0686C28.3604 48.7643 28.1873 48.489 27.9702 48.2589L20.486 40.0449L27.9702 31.8309C28.1873 31.6008 28.3604 31.3256 28.4796 31.0213C28.5987 30.7169 28.6614 30.3896 28.664 30.0584C28.6666 29.7272 28.6091 29.3987 28.4948 29.0922C28.3805 28.7856 28.2118 28.5071 27.9984 28.2729C27.785 28.0387 27.5312 27.8535 27.2519 27.7281C26.9726 27.6027 26.6733 27.5396 26.3716 27.5424C26.0698 27.5453 25.7715 27.6141 25.4943 27.7449C25.217 27.8756 24.9662 28.0656 24.7565 28.3039L15.6654 38.2814C15.2394 38.7492 15 39.3835 15 40.0449C15 40.7063 15.2394 41.3407 15.6654 41.8085ZM55.2435 28.3039C55.0338 28.0656 54.783 27.8756 54.5057 27.7449C54.2285 27.6141 53.9302 27.5453 53.6284 27.5424C53.3267 27.5396 53.0274 27.6027 52.7481 27.7281C52.4688 27.8535 52.215 28.0387 52.0016 28.2729C51.7882 28.5071 51.6194 28.7856 51.5052 29.0922C51.3909 29.3987 51.3334 29.7272 51.336 30.0584C51.3386 30.3896 51.4013 30.7169 51.5204 31.0213C51.6396 31.3256 51.8127 31.6008 52.0298 31.8309L59.514 40.0449L52.0298 48.2589C51.8127 48.489 51.6396 48.7643 51.5204 49.0686C51.4013 49.3729 51.3386 49.7002 51.336 50.0314C51.3334 50.3626 51.3909 50.6911 51.5052 50.9977C51.6194 51.3042 51.7882 51.5827 52.0016 51.8169C52.215 52.0511 52.4688 52.2363 52.7481 52.3618C53.0274 52.4872 53.3267 52.5503 53.6284 52.5474C53.9302 52.5445 54.2285 52.4757 54.5057 52.345C54.783 52.2143 55.0338 52.0242 55.2435 51.786L64.3346 41.8085C64.7606 41.3407 65 40.7063 65 40.0449C65 39.3835 64.7606 38.7492 64.3346 38.2814L55.2435 28.3039ZM42.3614 21.9008L33.2703 56.8222C33.1048 57.4579 33.1761 58.1398 33.4684 58.7179C33.7608 59.296 34.2503 59.723 34.8294 59.9052C35.0331 59.9669 35.2432 59.9988 35.4545 60C35.9484 59.9996 36.4287 59.8226 36.8228 59.4959C37.2169 59.1691 37.5033 58.7104 37.6386 58.1891L46.7297 23.2677C46.8244 22.9488 46.8596 22.6122 46.8331 22.278C46.8066 21.9439 46.7189 21.619 46.5754 21.3228C46.4318 21.0267 46.2353 20.7654 45.9977 20.5545C45.76 20.3437 45.486 20.1876 45.1921 20.0956C44.8981 20.0036 44.5903 19.9777 44.2871 20.0192C43.9838 20.0608 43.6913 20.1691 43.427 20.3377C43.1628 20.5062 42.9322 20.7315 42.7491 21.0001C42.566 21.2686 42.4341 21.575 42.3614 21.9008Z" fill="white"/>
<path d="M248.976 57V6.6H270.792C275.304 6.6 279.192 7.344 282.456 8.832C285.72 10.272 288.24 12.36 290.016 15.096C291.792 17.832 292.68 21.096 292.68 24.888C292.68 28.632 291.792 31.872 290.016 34.608C288.24 37.296 285.72 39.36 282.456 40.8C279.192 42.24 275.304 42.96 270.792 42.96H255.456L260.64 37.848V57H248.976ZM281.016 57L268.416 38.712H280.872L293.616 57H281.016ZM260.64 39.144L255.456 33.672H270.144C273.744 33.672 276.432 32.904 278.208 31.368C279.984 29.784 280.872 27.624 280.872 24.888C280.872 22.104 279.984 19.944 278.208 18.408C276.432 16.872 273.744 16.104 270.144 16.104H255.456L260.64 10.56V39.144Z" fill="white"/>
<path d="M214.816 57.576C211.168 57.576 207.88 56.76 204.952 55.128C202.024 53.448 199.696 51.12 197.968 48.144C196.288 45.168 195.448 41.664 195.448 37.632C195.448 33.552 196.288 30.024 197.968 27.048C199.696 24.072 202.024 21.768 204.952 20.136C207.88 18.504 211.168 17.688 214.816 17.688C218.08 17.688 220.936 18.408 223.384 19.848C225.832 21.288 227.728 23.472 229.072 26.4C230.416 29.328 231.088 33.072 231.088 37.632C231.088 42.144 230.44 45.888 229.144 48.864C227.848 51.792 225.976 53.976 223.528 55.416C221.128 56.856 218.224 57.576 214.816 57.576ZM216.76 48.36C218.584 48.36 220.24 47.928 221.728 47.064C223.216 46.2 224.392 44.976 225.256 43.392C226.168 41.76 226.624 39.84 226.624 37.632C226.624 35.376 226.168 33.456 225.256 31.872C224.392 30.288 223.216 29.064 221.728 28.2C220.24 27.336 218.584 26.904 216.76 26.904C214.888 26.904 213.208 27.336 211.72 28.2C210.232 29.064 209.032 30.288 208.12 31.872C207.256 33.456 206.824 35.376 206.824 37.632C206.824 39.84 207.256 41.76 208.12 43.392C209.032 44.976 210.232 46.2 211.72 47.064C213.208 47.928 214.888 48.36 216.76 48.36ZM226.912 57V49.08L227.128 37.56L226.408 26.112V3.576H237.64V57H226.912Z" fill="white"/>
</svg>
