<svg xmlns="http://www.w3.org/2000/svg" version="1.1" xmlns:xlink="http://www.w3.org/1999/xlink" width="512" height="512" x="0" y="0" viewBox="0 0 24 24" style="enable-background:new 0 0 512 512" xml:space="preserve" class=""><g transform="matrix(-1.8369701987210297e-16,-1,1,-1.8369701987210297e-16,-7.160304349440594e-7,23.9999992839693)"><path d="M0 12A12 12 0 1 0 12 0 12.013 12.013 0 0 0 0 12Zm22 0A10 10 0 1 1 12 2a10.011 10.011 0 0 1 10 10ZM11.757 7.757l1.414-1.414 4.243 4.243a2 2 0 0 1 0 2.828l-4.243 4.243-1.414-1.414L15 13H6v-2h9Z" fill="#d6d6d6" opacity="1" data-original="#000000"></path></g></svg>