<svg xmlns="http://www.w3.org/2000/svg" version="1.1" xmlns:xlink="http://www.w3.org/1999/xlink" width="512" height="512" x="0" y="0" viewBox="0 0 24 24" style="enable-background:new 0 0 512 512" xml:space="preserve" class=""><g><path d="M3.5 7C4.879 7 6 5.879 6 4.5S4.879 2 3.5 2 1 3.121 1 4.5 2.121 7 3.5 7Zm0-4C4.327 3 5 3.673 5 4.5S4.327 6 3.5 6 2 5.327 2 4.5 2.673 3 3.5 3Zm5 14c.275 0 .5.225.5.5v2a.5.5 0 0 0 1 0v-2c0-.827-.673-1.5-1.5-1.5H6V9h1.672c.668 0 1.295-.26 1.768-.732l1.571-1.571c.109 3.485 2.971 6.29 6.483 6.29 3.58 0 6.493-2.913 6.493-6.493S21.073 0 17.493 0c-3.12 0-5.732 2.213-6.352 5.152L8.732 7.561A1.511 1.511 0 0 1 7.671 8H3.5A2.502 2.502 0 0 0 1 10.5v9.676c0 .162-.025.321-.077.474l-.898 2.692a.502.502 0 0 0 .316.633.503.503 0 0 0 .633-.316l.896-2.691a2.47 2.47 0 0 0 .129-.791v-3.176h6.5Zm8.993-16c3.029 0 5.493 2.464 5.493 5.493s-2.464 5.493-5.493 5.493S12 9.522 12 6.493 14.464 1 17.493 1ZM2 10.5C2 9.673 2.673 9 3.5 9H5v7H2v-5.5Zm21.787 2.909-15 10.5a.499.499 0 1 1-.574-.818l15-10.5a.5.5 0 0 1 .574.818Z" fill="#d07a7e" opacity="1" data-original="#000000" class=""></path></g></svg>