<svg xmlns="http://www.w3.org/2000/svg" version="1.1" xmlns:xlink="http://www.w3.org/1999/xlink" width="512" height="512" x="0" y="0" viewBox="0 0 24 24" style="enable-background:new 0 0 512 512" xml:space="preserve" class=""><g><path d="M15.957 4.25 12 .293 8.043 4.25 11.5 7.707v1.831c-1.555.241-2.75 1.589-2.75 3.211s1.195 2.97 2.75 3.211v2.039H9v6h6v-6h-2.5V15.96c1.555-.241 2.75-1.589 2.75-3.211s-1.195-2.97-2.75-3.211V7.707l3.457-3.457ZM14 23h-4v-4h4v4ZM12 1.707l2.543 2.543L12 6.793 9.457 4.25 12 1.707Zm2.25 11.043c0 1.24-1.009 2.25-2.25 2.25s-2.25-1.01-2.25-2.25S10.759 10.5 12 10.5s2.25 1.009 2.25 2.25Zm-6.586 6.9a1.249 1.249 0 0 1 0 1.765L5.02 24.059l-.707-.707L6.665 21H2.5A2.503 2.503 0 0 1 0 18.5v-5C0 12.122 1.122 11 2.5 11H7v1H2.5c-.827 0-1.5.673-1.5 1.5v5c0 .827.673 1.5 1.5 1.5h4.099l-2.286-2.286.707-.707 2.644 2.644ZM24 5.5v5c0 1.378-1.122 2.5-2.5 2.5h-4.165l2.352 2.352-.707.707-2.644-2.644a1.25 1.25 0 0 1 0-1.765l2.644-2.644.707.707-2.286 2.286H21.5c.827 0 1.5-.673 1.5-1.5v-5c0-.827-.673-1.5-1.5-1.5H17v-1h4.5c1.378 0 2.5 1.122 2.5 2.5Z" fill="#d07a7e" opacity="1" data-original="#000000"></path></g></svg>