<svg xmlns="http://www.w3.org/2000/svg" version="1.1" xmlns:xlink="http://www.w3.org/1999/xlink" width="512" height="512" x="0" y="0" viewBox="0 0 24 24" style="enable-background:new 0 0 512 512" xml:space="preserve"><g><path d="M20.801 20.753c-.107-.188-2.679-4.643-6.846-10.142l-.045-.059c3.475-4.244 6.531-6.884 6.566-6.914a1.5 1.5 0 0 0-1.952-2.278c-.144.124-3.066 2.642-6.524 6.792-3.459-4.149-6.38-6.668-6.524-6.791a1.5 1.5 0 0 0-1.951 2.278c.034.03 3.082 2.658 6.566 6.913l-.045.059C5.879 16.11 3.308 20.565 3.2 20.753a1.503 1.503 0 0 0 .554 2.048c.921.534 1.771-.07 2.048-.554.024-.042 2.408-4.169 6.199-9.245 3.792 5.076 6.175 9.203 6.199 9.245.277.483 1.091 1.07 2.048.554.73-.393.966-1.33.554-2.048z" fill="#d07a7e" opacity="1" data-original="#000000"></path></g></svg>