<svg xmlns="http://www.w3.org/2000/svg" version="1.1" xmlns:xlink="http://www.w3.org/1999/xlink" width="512" height="512" x="0" y="0" viewBox="0 0 24 24" style="enable-background:new 0 0 512 512" xml:space="preserve" class=""><g><path d="M5.5 10C2.416 10 0 11.318 0 13v8c0 1.682 2.416 3 5.5 3s5.5-1.318 5.5-3v-8c0-1.682-2.416-3-5.5-3Zm4.5 7c0 .946-1.848 2-4.5 2S1 17.946 1 17v-2.254C1.987 15.51 3.62 16 5.5 16s3.513-.49 4.5-1.254V17Zm-4.5-6c2.652 0 4.5 1.054 4.5 2s-1.848 2-4.5 2S1 13.946 1 13s1.848-2 4.5-2Zm0 12C2.848 23 1 21.946 1 21v-2.254C1.987 19.51 3.62 20 5.5 20s3.513-.49 4.5-1.254V21c0 .946-1.848 2-4.5 2ZM20 5.5c0-.827-.673-1.5-1.5-1.5h-9C8.673 4 8 4.673 8 5.5v2C8 8.327 8.673 9 9.5 9h9c.827 0 1.5-.673 1.5-1.5v-2Zm-1 2a.5.5 0 0 1-.5.5h-9a.5.5 0 0 1-.5-.5v-2a.5.5 0 0 1 .5-.5h9a.5.5 0 0 1 .5.5v2Zm1 5a.5.5 0 0 1-1 0v-1a.5.5 0 0 1 1 0v1Zm-4 0v-1a.5.5 0 0 1 1 0v1a.5.5 0 0 1-1 0Zm-3 0v-1a.5.5 0 0 1 1 0v1a.5.5 0 0 1-1 0Zm0 3a.5.5 0 0 1 1 0v1a.5.5 0 0 1-1 0v-1Zm3 0a.5.5 0 0 1 1 0v1a.5.5 0 0 1-1 0v-1Zm4 1a.5.5 0 0 1-1 0v-1a.5.5 0 0 1 1 0v1Zm-7 3a.5.5 0 0 1 .5-.5h6a.5.5 0 0 1 0 1h-6a.5.5 0 0 1-.5-.5Zm11-15v15c0 2.481-2.019 4.5-4.5 4.5h-7a.5.5 0 0 1 0-1h7c1.93 0 3.5-1.57 3.5-3.5v-15C23 2.57 21.43 1 19.5 1h-11C6.57 1 5 2.57 5 4.5v3a.5.5 0 0 1-1 0v-3C4 2.019 6.019 0 8.5 0h11C21.981 0 24 2.019 24 4.5Z" fill="#d6d6d6" opacity="1" data-original="#000000" class=""></path></g></svg>