<svg xmlns="http://www.w3.org/2000/svg" version="1.1" xmlns:xlink="http://www.w3.org/1999/xlink" width="512" height="512" x="0" y="0" viewBox="0 0 24 24" style="enable-background:new 0 0 512 512" xml:space="preserve"><g><path d="M17.977 9.674c.185-2.62-.771-5.185-2.622-7.036S10.948-.155 8.348.022C3.823.343 0 4.597 0 9.312V14.5C0 16.79 1.21 18 3.5 18h5.185c4.718 0 8.974-3.812 9.292-8.326ZM8.685 17H3.5C1.771 17 1 16.229 1 14.5V9.312C1 4.9 4.719.96 8.984 1c4.522-.099 8.415 4.092 7.995 8.604C16.696 13.614 12.897 17 8.684 17ZM24 16.275v4.726C24 22.851 22.851 24 21 24h-4.722c-2.698 0-5.354-1.424-6.932-3.717a.5.5 0 1 1 .824-.566C11.563 21.742 13.903 23 16.277 23h4.722c.913 0 2-.347 2-1.999v-4.726c0-2.374-1.258-4.713-3.283-6.105a.5.5 0 1 1 .566-.824c2.292 1.576 3.717 4.231 3.717 6.93ZM10 9a1 1 0 1 1-2 0 1 1 0 0 1 2 0ZM6 9a1 1 0 1 1-2 0 1 1 0 0 1 2 0Zm8 0a1 1 0 1 1-2 0 1 1 0 0 1 2 0Z" fill="#d07a7e" opacity="1" data-original="#000000"></path></g></svg>