<svg xmlns="http://www.w3.org/2000/svg" version="1.1" xmlns:xlink="http://www.w3.org/1999/xlink" width="512" height="512" x="0" y="0" viewBox="0 0 64 64" style="enable-background:new 0 0 512 512" xml:space="preserve" class=""><g><path d="m62.371 18.071-30-12a1 1 0 0 0-.742 0l-30 12a1 1 0 0 0 0 1.858l30 12a1 1 0 0 0 .742 0l17.134-6.854a1 1 0 0 0-.742-1.857L32 29.923 4.692 19 32 8.077 59.308 19l-2.679 1.071a1 1 0 1 0 .742 1.858l5-2a1 1 0 0 0 0-1.858z" fill="#d6d6d6" opacity="1" data-original="#000000"></path><path d="M49 27a1 1 0 0 0-1 1v11.512a26.092 26.092 0 0 1-32 0V28a1 1 0 0 0-2 0v12a1 1 0 0 0 .378.783 28.11 28.11 0 0 0 35.244 0A1 1 0 0 0 50 40V28a1 1 0 0 0-1-1z" fill="#d6d6d6" opacity="1" data-original="#000000"></path><path d="M55 37.2v-15a1 1 0 0 0-.812-.982l-22-4.2a1 1 0 1 0-.376 1.964L53 23.027V37.2c-2.229.855-2.392 3.729-1.524 5.952l-1.469 12.734a1 1 0 0 0 .4.916 6 6 0 0 0 7.2 0 1 1 0 0 0 .4-.916l-1.483-12.735c.868-2.224.704-5.097-1.524-5.951zM54 39c1.229 0 1.1 1.96.757 3.134a4.628 4.628 0 0 1-1.513 0C52.9 40.959 52.771 39 54 39zm-1.936 16.5 1.308-11.339a4.675 4.675 0 0 0 1.256 0L55.936 55.5a4.055 4.055 0 0 1-3.872 0z" fill="#d6d6d6" opacity="1" data-original="#000000"></path></g></svg>