<!DOCTYPE svg PUBLIC "-//W3C//DTD SVG 1.1//EN" "http://www.w3.org/Graphics/SVG/1.1/DTD/svg11.dtd">
<!-- Uploaded to: SVG Repo, www.svgrepo.com, Transformed by: SVG Repo Mixer Tools -->
<svg width="800px" height="800px" viewBox="0 0 24 24" id="_003_ECOMMERCE_03" data-name="003_ECOMMERCE_03" xmlns="http://www.w3.org/2000/svg" fill="#D07A7E" stroke="#D07A7E">
<g id="SVGRepo_bgCarrier" stroke-width="0"/>
<g id="SVGRepo_tracerCarrier" stroke-linecap="round" stroke-linejoin="round"/>
<g id="SVGRepo_iconCarrier">
<title>003_096</title>
<path d="M14.666,21A9,9,0,1,1,18.79395,4a1.0002,1.0002,0,1,1-.918,1.77734A6.92643,6.92643,0,0,0,14.666,5a7,7,0,1,0,4.667,12.21777A1,1,0,1,1,20.667,18.708,8.98743,8.98743,0,0,1,14.666,21Z" style="fill:#D07A7E"/>
<path d="M15,11H3A1,1,0,0,1,3,9H15a1,1,0,0,1,0,2Z" style="fill:#D07A7E"/>
<path d="M13,15H3a1,1,0,0,1,0-2H13a1,1,0,0,1,0,2Z" style="fill:#D07A7E"/>
</g>
</svg>