<svg xmlns="http://www.w3.org/2000/svg" version="1.1" xmlns:xlink="http://www.w3.org/1999/xlink" width="512" height="512" x="0" y="0" viewBox="0 0 512 512" style="enable-background:new 0 0 512 512" xml:space="preserve" class=""><g><path d="M338.555 69.55a4.843 4.843 0 0 1-3.438-1.425c-18.253-18.293-42.551-28.365-68.411-28.365-2.684 0-4.856-2.174-4.856-4.856s2.172-4.856 4.856-4.856c28.458 0 55.194 11.087 75.287 31.215a4.858 4.858 0 0 1-3.438 8.287zM376.852 362.599a4.857 4.857 0 0 1-4.206-2.421c-9.489-16.37-27.097-26.54-45.952-26.54-2.684 0-4.856-2.174-4.856-4.856s2.172-4.856 4.856-4.856c22.302 0 43.13 12.024 54.355 31.381a4.856 4.856 0 0 1-4.197 7.292zM76.313 445.853a4.855 4.855 0 0 1-4.813-4.249l-6.378-50.696c-.175-1.382.256-2.774 1.176-3.82s2.248-1.643 3.642-1.643h14.772c2.684 0 4.856 2.174 4.856 4.856s-2.172 4.856-4.856 4.856h-9.266l5.691 45.233a4.854 4.854 0 0 1-4.824 5.463z" fill="#d6d6d6" opacity="1" data-original="#000000"></path><path d="M368.089 503.655h33.129c18.964 0 34.625-14.301 36.834-32.679 18.503-2.262 32.891-18.042 32.891-37.147v-5.582c0-9.669-7.863-17.537-17.532-17.537h-15.066v-12.194a4.855 4.855 0 0 0-4.856-4.856h-20.216c-.228-4.016 1.18-16.493-3.984-32.894h40.143c10.281 0 18.641-8.363 18.641-18.641 0-10.279-8.36-18.641-18.641-18.641h-15.943c-2.684 0-4.856 2.174-4.856 4.856s2.172 4.856 4.856 4.856h15.943c4.922 0 8.93 4.005 8.93 8.93s-4.007 8.93-8.93 8.93h-37.517c9.208-12.304 14.75-27.49 14.75-44.017 0-24.377-11.813-46.879-31.73-60.719V136.57c0-70.76-57.324-128.223-128.228-128.223-70.725 0-128.266 57.52-128.266 128.223v109.755c-19.893 13.864-31.692 36.363-31.692 60.714 0 18.977 7.235 36.252 19.033 49.353a86.863 86.863 0 0 0-1.759 5.265H67.971c-16.134 0-28.725 14.151-26.698 30.267l11.092 88.183c1.693 13.425 13.169 23.55 26.698 23.55H227.63c13.529 0 25.005-10.125 26.698-23.55l2.526-20.074h74.103v6.494c.001 20.471 16.66 37.128 37.132 37.128zm85.321-83.232c4.311 0 7.82 3.509 7.82 7.825v5.582c0 13.637-9.899 24.982-22.886 27.289v-40.695h15.066zm-24.778 46.103c0 15.118-12.296 27.417-27.414 27.417h-33.129c-15.118 0-27.419-12.299-27.419-27.417v-63.154h87.962zM116.46 307.038c0-21.933 11.016-42.137 29.468-54.044a4.858 4.858 0 0 0 2.224-4.081V136.568c0-65.347 53.183-118.512 118.554-118.512 64.952 0 118.516 52.592 118.516 118.512v112.344c0 1.653.839 3.191 2.229 4.083 18.471 11.884 29.501 32.086 29.501 54.042 0 14.882-5.136 28.546-13.665 39.439-14.515-27.517-43.38-46.341-76.593-46.341h-31.303v-7.456c36.502-10.563 63.294-44.223 63.294-84.082V134.84a4.855 4.855 0 0 0-4.856-4.856h-9.755a15.638 15.638 0 0 1-14.549-9.795l-4.832-11.903c-3.644-8.959-15.548-10.651-21.567-3.146l-15.213 18.966a15.64 15.64 0 0 1-12.254 5.878h-95.82a4.855 4.855 0 0 0-4.856 4.856v73.757c0 39.769 26.669 73.374 63.042 84.018v7.52h-31.303c-33.233 0-62.039 18.879-76.524 46.432-8.57-10.913-13.738-24.609-13.738-39.529zm154.642-20.572h-8.541c-42.936 0-77.866-34.931-77.866-77.869v-68.901h90.964c7.753 0 14.98-3.469 19.832-9.515l15.213-18.966c1.378-1.712 4.136-1.37 4.989.73l4.832 11.9c3.912 9.629 13.155 15.851 23.55 15.851h4.899v68.901c-.001 42.938-34.932 77.869-77.872 77.869zm-23.365 8.359c4.829.829 9.762 1.353 14.824 1.353h8.541c4.976 0 9.826-.514 14.577-1.315v26.484c0 10.461-8.512 18.971-18.973 18.971s-18.969-8.51-18.969-18.971zm-3.044 184.066c-1.081 8.581-8.417 15.052-17.062 15.052H79.063c-8.645 0-15.981-6.471-17.062-15.052l-11.092-88.183c-1.293-10.256 6.716-19.341 17.062-19.341 9.935.016 165.144 0 170.756 0 10.361 0 18.352 9.107 17.062 19.343v-.002zm13.384-28.571 7.349-58.397v-.002c2.024-16.1-10.558-30.264-26.698-30.264H134.143c10.425-30.1 38.978-51.808 72.579-51.808h31.303v11.5c0 15.815 12.866 28.683 28.681 28.683s28.685-12.868 28.685-28.683v-11.5h31.303c29.746 0 55.543 17.016 68.317 41.795-8.705 2.079-15.214 9.875-15.214 19.208v9.233c0 2.682 2.172 4.856 4.856 4.856s4.856-2.174 4.856-4.856v-9.233c0-5.35 4.201-9.699 9.47-10.022 5.955 16.574 4.292 28.555 4.581 32.832h-67.747a4.855 4.855 0 0 0-4.856 4.856v51.803h-72.88z" fill="#d6d6d6" opacity="1" data-original="#000000"></path><path d="M153.321 409.331c-12.842 0-23.294 10.449-23.294 23.296 0 12.875 10.452 23.35 23.294 23.35 12.875 0 23.35-10.475 23.35-23.35 0-12.847-10.475-23.296-23.35-23.296zm0 36.934c-7.488 0-13.582-6.117-13.582-13.638 0-7.49 6.094-13.584 13.582-13.584 7.521 0 13.638 6.094 13.638 13.584 0 7.521-6.117 13.638-13.638 13.638zM238.443 179.521a4.855 4.855 0 0 0-4.856-4.856h-18.03c-2.684 0-4.856 2.174-4.856 4.856s2.172 4.856 4.856 4.856h18.03a4.855 4.855 0 0 0 4.856-4.856zM318.111 174.665h-18.034c-2.684 0-4.856 2.174-4.856 4.856s2.172 4.856 4.856 4.856h18.034c2.684 0 4.856-2.174 4.856-4.856s-2.172-4.856-4.856-4.856zM307.38 215.047h-81.096a4.855 4.855 0 0 0-4.856 4.856c0 24.195 19.685 43.877 43.879 43.877h3.054c24.195 0 43.875-19.682 43.875-43.877a4.855 4.855 0 0 0-4.856-4.856zm-39.019 39.021h-3.054c-17.19 0-31.459-12.761-33.821-29.309h70.691c-2.361 16.547-16.626 29.309-33.816 29.309z" fill="#d6d6d6" opacity="1" data-original="#000000"></path></g></svg>