<svg xmlns="http://www.w3.org/2000/svg" version="1.1" xmlns:xlink="http://www.w3.org/1999/xlink" width="512" height="512" x="0" y="0" viewBox="0 0 24 24" style="enable-background:new 0 0 512 512" xml:space="preserve" class=""><g><path d="M23.12 2.878A2.979 2.979 0 0 0 21 2h-2.001A3.006 3.006 0 0 0 16 5.002l.002 4.085a1.378 1.378 0 0 0 2.113 1.166l1.991-1.254H21c1.654 0 3-1.346 3-3v-1c0-.802-.312-1.555-.88-2.122zM22 6c0 .551-.448 1-1 1h-1.183a.999.999 0 0 0-.533.154l-1.283.808v-2.96a1 1 0 0 1 .998-1H21a.997.997 0 0 1 1 .999v1zM3.894 14.998l1.981 1.248a1.387 1.387 0 0 0 2.123-1.174L8 11c0-1.654-1.345-3-2.999-3h-2c-.801 0-1.554.312-2.12.878A2.981 2.981 0 0 0 .001 11v1c0 1.654 1.346 3 3 3h.894zm-1.894-3v-1c0-.267.104-.518.293-.707s.44-.293.707-.293h2.001c.551.001.999.45.999 1.001v2.961l-1.284-.809a.999.999 0 0 0-.533-.154H3c-.552 0-1-.449-1-1zm.533-5.692a1.001 1.001 0 0 1-.215-1.398C4.562 1.852 8.5.004 11.936.004c1.13 0 2.255.144 3.335.448A1 1 0 0 1 15 2.415c-.135.003-.27-.04-.403-.065l.02.024a1 1 0 0 1-1.558 1.253A19.87 19.87 0 0 0 12 2.413c-.745.788-1.974 2.225-2.962 4.062a1 1 0 0 1-1.761-.948 20.794 20.794 0 0 1 2.117-3.164 10.04 10.04 0 0 0-5.463 3.73c-.33.447-.957.539-1.398.214zM14 8a1 1 0 0 1-1 1h-3a1 1 0 1 1 0-2h3a1 1 0 0 1 1 1zm8.866 2.004a1 1 0 0 0-.907 1.085 9.986 9.986 0 0 1-.42 3.911H18.1c.159-.616.283-1.249.347-1.903a1 1 0 1 0-1.99-.194c-.07.722-.227 1.422-.434 2.097h-5.522a1 1 0 1 0 0 2h4.721c-1.024 2.08-2.41 3.725-3.223 4.587a20.018 20.018 0 0 1-2.637-3.49 1 1 0 1 0-1.723 1.015c.58.985 1.201 1.837 1.768 2.541a9.977 9.977 0 0 1-5.79-4.2 1 1 0 1 0-1.676 1.092c2.226 3.415 5.986 5.453 10.057 5.454 6.616 0 11.999-5.383 11.999-12 0-.367-.017-.73-.049-1.089a.996.996 0 0 0-1.085-.907zm-8.261 11.64c.942-1.168 2.029-2.762 2.818-4.644h3.223a10.03 10.03 0 0 1-6.042 4.644z" fill="#d6d6d6" opacity="1" data-original="#000000" class=""></path></g></svg>