<svg xmlns="http://www.w3.org/2000/svg" version="1.1" xmlns:xlink="http://www.w3.org/1999/xlink" width="512" height="512" x="0" y="0" viewBox="0 0 24 24" style="enable-background:new 0 0 512 512" xml:space="preserve" class=""><g><path d="M22 16.051V7.5C22 5.019 19.981 3 17.5 3h-11A4.505 4.505 0 0 0 2 7.5v8.551c-1.14.232-2 1.242-2 2.449C0 19.879 1.122 21 2.5 21h19c1.378 0 2.5-1.121 2.5-2.5 0-1.208-.86-2.217-2-2.449ZM3 7.5C3 5.57 4.57 4 6.5 4h11C19.43 4 21 5.57 21 7.5V16h-5.5a.504.504 0 0 0-.354.146l-.854.854H9.706l-.854-.854A.5.5 0 0 0 8.498 16H3V7.5ZM21.5 20h-19c-.827 0-1.5-.673-1.5-1.5S1.673 17 2.5 17h5.793l.854.854a.5.5 0 0 0 .354.146h5c.133 0 .26-.053.354-.146l.854-.854h5.793c.827 0 1.5.673 1.5 1.5s-.673 1.5-1.5 1.5Z" fill="#d07a7e" opacity="1" data-original="#000000"></path></g></svg>