<svg xmlns="http://www.w3.org/2000/svg" version="1.1" xmlns:xlink="http://www.w3.org/1999/xlink" width="512" height="512" x="0" y="0" viewBox="0 0 24 24" style="enable-background:new 0 0 512 512" xml:space="preserve"><g><path d="M6.443 4.08 4.304.567l.853-.519 2.14 3.513-.854.52ZM20 12a7.996 7.996 0 0 1-2.771 6.051A3.509 3.509 0 0 0 16 20.704V24H8v-3.295c0-1.007-.456-1.982-1.252-2.675a8.01 8.01 0 0 1-2.661-7.227c.512-3.521 3.457-6.36 7.003-6.753 2.307-.256 4.527.45 6.245 1.987A8.015 8.015 0 0 1 20 11.999Zm-5 8.704c0-.239.04-.471.077-.704H8.921c.038.233.078.467.078.705V23h6v-2.296ZM19 12c0-1.988-.85-3.89-2.332-5.217-1.502-1.344-3.438-1.964-5.469-1.738-3.1.343-5.675 2.825-6.122 5.903a7.01 7.01 0 0 0 2.327 6.328A4.65 4.65 0 0 1 8.638 19h2.861v-5.551a2.503 2.503 0 0 1-2-2.449h1c0 .827.673 1.5 1.5 1.5s1.5-.673 1.5-1.5h1c0 1.208-.86 2.217-2 2.449V19h2.856a4.543 4.543 0 0 1 1.218-1.706A6.993 6.993 0 0 0 18.999 12ZM19.696.567l-.854-.52-2.14 3.513.854.52 2.14-3.513Zm3.86 4.342L20.02 6.506l.412.912 3.536-1.597-.412-.912ZM.031 5.821l3.536 1.597.412-.912L.443 4.909l-.412.912Z" fill="#d07a7e" opacity="1" data-original="#000000"></path></g></svg>