<svg xmlns="http://www.w3.org/2000/svg" version="1.1" xmlns:xlink="http://www.w3.org/1999/xlink" width="512" height="512" x="0" y="0" viewBox="0 0 24 24" style="enable-background:new 0 0 512 512" xml:space="preserve" class=""><g transform="matrix(-1.8369701987210297e-16,1,-1,-1.8369701987210297e-16,23.994359351461757,-0.001953917322680354)"><path d="M24 6.24C24 13.88 13.87 24 6.24 24c-1.67 0-3.23-.63-4.38-1.78l-1-1.15C-.3 19.91-.3 17.95.91 16.74c.03-.03 2.44-1.88 2.44-1.88a3.106 3.106 0 0 1 4.28 0l1.46 1.17c3.2-1.36 5.47-3.64 6.93-6.95l-1.16-1.46a3.086 3.086 0 0 1 0-4.28S16.71.93 16.74.9a3.096 3.096 0 0 1 4.38 0l1.05.91A6.145 6.145 0 0 1 24 6.23Z" fill="#d6d6d6" opacity="1" data-original="#000000" class=""></path></g></svg>