<svg xmlns="http://www.w3.org/2000/svg" version="1.1" xmlns:xlink="http://www.w3.org/1999/xlink" width="512" height="512" x="0" y="0" viewBox="0 0 24 24" style="enable-background:new 0 0 512 512" xml:space="preserve" class=""><g><path d="M11 2.5a.5.5 0 0 1 .5-.5h2a.5.5 0 0 1 0 1h-2a.5.5 0 0 1-.5-.5Zm-.756 3.43 1.808 1.077a.501.501 0 0 0 .512-.86L10.756 5.07a.5.5 0 0 0-.512.86ZM9 2.5C9 3.879 7.878 5 6.5 5S4 3.879 4 2.5 5.122 0 6.5 0 9 1.121 9 2.5Zm-1 0C8 1.673 7.327 1 6.5 1S5 1.673 5 2.5 5.673 4 6.5 4 8 3.327 8 2.5Zm1 7v4a3.495 3.495 0 0 1-2 3.149V23.5a.5.5 0 0 1-1 0v-6.551c-.165.024-.329.051-.5.051h-2c-.171 0-.335-.027-.5-.051V23.5a.5.5 0 0 1-1 0v-6.851A3.495 3.495 0 0 1 0 13.5v-4C0 7.57 1.57 6 3.5 6h2C7.43 6 9 7.57 9 9.5Zm-1 0C8 8.121 6.878 7 5.5 7h-2A2.503 2.503 0 0 0 1 9.5v4C1 14.879 2.122 16 3.5 16h2C6.878 16 8 14.879 8 13.5v-4Zm15.903 6.691-2.438 6.101c-.36 1.293-1.803 2.045-3.078 1.664-.52-.139-.931-.462-1.282-.842l-3.89-5.021c-.09-.088-.173-.081-.248.021L9.94 23.737a.501.501 0 0 1-.881-.475l3.028-5.623c.36-.721 1.445-.805 1.918-.159l2.661 3.434c.005-.018.005-.036.01-.053l2.438-6.1c.365-1.277 1.752-2.046 3.078-1.664a2.504 2.504 0 0 1 1.711 3.094Zm-1.988-2.133a1.498 1.498 0 0 0-1.856 1.027l-2.438 6.1c-.216.719.286 1.622 1.042 1.81a1.506 1.506 0 0 0 1.856-1.027l2.438-6.1c.212-.748-.249-1.581-1.043-1.81ZM16 10.499c0-1.379 1.122-2.5 2.5-2.5s2.5 1.121 2.5 2.5-1.122 2.5-2.5 2.5-2.5-1.121-2.5-2.5Zm1 0c0 .827.673 1.5 1.5 1.5s1.5-.673 1.5-1.5-.673-1.5-1.5-1.5-1.5.673-1.5 1.5Z" fill="#d07a7e" opacity="1" data-original="#000000" class=""></path></g></svg>