<svg xmlns="http://www.w3.org/2000/svg" version="1.1" xmlns:xlink="http://www.w3.org/1999/xlink" width="512" height="512" x="0" y="0" viewBox="0 0 24 24" style="enable-background:new 0 0 512 512" xml:space="preserve" class=""><g><path d="M19 12c-1.654 0-3 1.346-3 3s1.346 3 3 3 3-1.346 3-3-1.346-3-3-3Zm0 5c-1.103 0-2-.897-2-2s.897-2 2-2 2 .897 2 2-.897 2-2 2ZM7 20c-1.103 0-2 .897-2 2s.897 2 2 2 2-.897 2-2-.897-2-2-2Zm0 3c-.551 0-1-.449-1-1s.449-1 1-1 1 .449 1 1-.449 1-1 1ZM23.951 6.99l-.821 4.108c-.047.238-.264.469-.588.392a.5.5 0 0 1-.392-.588l.821-4.108a1.497 1.497 0 0 0-.311-1.245A1.493 1.493 0 0 0 21.5 5H4.63l1.25 9h7.62a.5.5 0 0 1 0 1H6.02a3.514 3.514 0 0 0 3.462 3h5.017a.5.5 0 0 1 0 1H9.482a4.518 4.518 0 0 1-4.457-3.881L3.245 2.294A1.507 1.507 0 0 0 1.759 1H.5a.5.5 0 0 1 0-1h1.259c1.24 0 2.305.927 2.476 2.156L4.491 4H21.5c.752 0 1.457.333 1.933.915s.666 1.338.518 2.075ZM23.997 23.444a.5.5 0 1 1-.993.112C22.774 21.529 21.053 20 19.001 20s-3.773 1.529-4.003 3.556a.499.499 0 1 1-.993-.113c.287-2.534 2.435-4.444 4.997-4.444s4.71 1.91 4.997 4.444Z" fill="#d6d6d6" opacity="1" data-original="#000000" class=""></path></g></svg>