<svg xmlns="http://www.w3.org/2000/svg" version="1.1" xmlns:xlink="http://www.w3.org/1999/xlink" width="512" height="512" x="0" y="0" viewBox="0 0 64 64" style="enable-background:new 0 0 512 512" xml:space="preserve" class=""><g><path d="M40.968 6.437A4.441 4.441 0 0 0 36.532 2h-9.063a4.442 4.442 0 0 0-4.437 4.437V15.5a4.442 4.442 0 0 0 4.437 4.437h9.063a4.442 4.442 0 0 0 4.437-4.437V6.437zm-2 9.063a2.44 2.44 0 0 1-2.437 2.437h-9.063a2.44 2.44 0 0 1-2.437-2.437V6.437A2.44 2.44 0 0 1 27.468 4h9.063a2.44 2.44 0 0 1 2.437 2.437zM40.968 27.468a4.442 4.442 0 0 0-4.437-4.437h-9.063a4.442 4.442 0 0 0-4.437 4.437v9.063a4.442 4.442 0 0 0 4.437 4.437h9.063a4.442 4.442 0 0 0 4.437-4.437zm-2 9.064a2.44 2.44 0 0 1-2.437 2.437h-9.063a2.44 2.44 0 0 1-2.437-2.437v-9.063a2.44 2.44 0 0 1 2.437-2.437h9.063a2.44 2.44 0 0 1 2.437 2.437zM36.532 44.064h-9.063a4.442 4.442 0 0 0-4.437 4.437v9.063a4.442 4.442 0 0 0 4.437 4.437h9.063a4.442 4.442 0 0 0 4.437-4.437V48.5a4.443 4.443 0 0 0-4.437-4.436zm2.436 13.499A2.44 2.44 0 0 1 36.531 60h-9.063a2.44 2.44 0 0 1-2.437-2.437V48.5a2.44 2.44 0 0 1 2.437-2.437h9.063a2.44 2.44 0 0 1 2.437 2.437z" fill="#d6d6d6" opacity="1" data-original="#000000" class=""></path></g></svg>