<svg xmlns="http://www.w3.org/2000/svg" version="1.1" xmlns:xlink="http://www.w3.org/1999/xlink" width="512" height="512" x="0" y="0" viewBox="0 0 24 24" style="enable-background:new 0 0 512 512" xml:space="preserve" class=""><g><path d="M17.979 23.359a.499.499 0 0 1-.48.641.498.498 0 0 1-.479-.359C16.389 21.497 14.325 20 11.999 20s-4.39 1.497-5.021 3.641a.5.5 0 0 1-.959-.281c.754-2.567 3.213-4.359 5.979-4.359s5.226 1.792 5.979 4.359Zm6-9C23.225 11.792 20.766 10 18 10a.5.5 0 0 0 0 1c2.325 0 4.39 1.497 5.021 3.641a.497.497 0 0 0 .62.338.499.499 0 0 0 .339-.62ZM6.5 10.5A.5.5 0 0 0 6 10C3.233 10 .774 11.792.021 14.359a.499.499 0 0 0 .48.641.498.498 0 0 0 .479-.359C1.611 12.497 3.675 11 6.001 11a.5.5 0 0 0 .5-.5ZM12 9c2.206 0 4 1.794 4 4s-1.794 4-4 4-4-1.794-4-4 1.794-4 4-4Zm-3 4c0 1.654 1.346 3 3 3s3-1.346 3-3-1.346-3-3-3-3 1.346-3 3Zm5-9c0-2.206 1.794-4 4-4s4 1.794 4 4-1.794 4-4 4-4-1.794-4-4Zm1 0c0 1.654 1.346 3 3 3s3-1.346 3-3-1.346-3-3-3-3 1.346-3 3ZM2 4c0-2.206 1.794-4 4-4s4 1.794 4 4-1.794 4-4 4-4-1.794-4-4Zm1 0c0 1.654 1.346 3 3 3s3-1.346 3-3-1.346-3-3-3-3 1.346-3 3Z" fill="#d07a7e" opacity="1" data-original="#000000" class=""></path></g></svg>