<svg xmlns="http://www.w3.org/2000/svg" version="1.1" xmlns:xlink="http://www.w3.org/1999/xlink" width="512" height="512" x="0" y="0" viewBox="0 0 24 24" style="enable-background:new 0 0 512 512" xml:space="preserve" class=""><g><path d="M7.5 13c2.481 0 4.5-2.019 4.5-4.5S9.981 4 7.5 4 3 6.019 3 8.5 5.019 13 7.5 13Zm0-8C9.43 5 11 6.57 11 8.5S9.43 12 7.5 12 4 10.43 4 8.5 5.57 5 7.5 5ZM15 22.5v1a.5.5 0 0 1-1 0v-1c0-3.584-2.916-6.5-6.5-6.5S1 18.916 1 22.5v1a.5.5 0 0 1-1 0v-1C0 18.364 3.364 15 7.5 15s7.5 3.364 7.5 7.5Zm9-4.637v.637a.5.5 0 0 1-1 0v-.637A5.87 5.87 0 0 0 17.137 12c-1.357 0-2.485.307-3.351.91a.499.499 0 1 1-.572-.82c1.037-.724 2.357-1.09 3.923-1.09A6.871 6.871 0 0 1 24 17.863ZM17.5 9C19.981 9 22 6.981 22 4.5S19.981 0 17.5 0 13 2.019 13 4.5 15.019 9 17.5 9Zm0-8C19.43 1 21 2.57 21 4.5S19.43 8 17.5 8 14 6.43 14 4.5 15.57 1 17.5 1Z" fill="#d6d6d6" opacity="1" data-original="#000000" class=""></path></g></svg>