<svg xmlns="http://www.w3.org/2000/svg" version="1.1" xmlns:xlink="http://www.w3.org/1999/xlink" width="512" height="512" x="0" y="0" viewBox="0 0 300.5 300.5" style="enable-background:new 0 0 512 512" xml:space="preserve" class=""><g><path d="M276.384 2.934C274.112-.619 269.55.014 252.639.092c-10.146.048-19.983-.213-24.952.062-4.463.247-7.68 2.526-10.248 5.677l-8.313 14.73-36.113 63.999c-18.332 32.126-36.759 64.242-53.388 94.613l50.088 90.901 13.986 25.383c1.449 2.508 2.993 2.887 4.564 3.371 7.254 2.233 17.856 1.584 29.318 1.584 9.734 0 22.387.176 24.473-4.367 1.043-2.273.13-5.324-1.32-8.388 0 0-8.016-14.457-18.52-33.549 4.877 8.817 9.789 17.676 14.731 26.604L181.3 178.706c1.254 2.387 2.522 4.766 3.785 7.148-1.35-2.535-2.619-4.931-3.785-7.148l42.133-74.92c14.614-25.715 29.268-51.489 43.624-77.573l.054-.097.014-.023-.01.017 9.774-17.381c1.34-2.766.52-4.188-.505-5.795zM104.779 74.358c-3.67-6.393-6.443-14.728-14.839-14.842H45.415c-2.429.348-4.608.959-5.102 3.246-.794 4.819 3.31 11.438 5.572 15.31 5.262 9.038 23.787 38.482 23.645 41.737-.092 2.182-29.117 51.734-41.734 74.205-1.877 3.336-5.91 9.348-4.642 12.058 1.327 2.835 3.962 3.892 5.564 3.712h44.993c9.191-1.119 9.599-5.981 18.081-21.336 12.985-23.506 26.829-47.39 38.961-69.103-7.499-13.934-17.469-30.171-25.974-44.987z" fill="#d6d6d6" opacity="1" data-original="#000000" class=""></path></g></svg>